# Blender v2.77 (sub 0) OBJ File: 'quad.blend'
# www.blender.org
mtllib quad.mtl
o Cube
v 3.899312 0.206630 -4.051161
v 3.431675 -0.206630 -3.583523
v 0.830136 -0.206630 -0.981984
v 0.830137 0.206630 -0.981985
v 4.042042 0.206630 -3.908432
v 3.574404 -0.206630 -3.440794
v 0.972864 -0.206630 -0.839254
v 0.972865 0.206630 -0.839255
v -1.004135 0.206630 -0.839395
v -1.004134 -0.206630 -0.839394
v 3.574406 -0.206630 3.453688
v 4.042044 0.206630 3.921325
v -0.496392 -0.258366 -1.154372
v -0.496392 0.258366 -1.154372
v -0.260689 -0.258366 -1.225872
v -0.260689 0.258366 -1.225872
v -0.015565 -0.258366 -1.250014
v -0.015565 0.258366 -1.250014
v 0.229558 -0.258366 -1.225872
v 0.229558 0.258366 -1.225872
v 0.465261 -0.258366 -1.154372
v 0.465261 0.258366 -1.154372
v 0.682487 -0.258366 -1.038262
v 0.682487 0.258366 -1.038262
v 0.872887 -0.258366 -0.882005
v 0.872887 0.258366 -0.882005
v 1.029144 -0.258366 -0.691606
v 1.029144 0.258366 -0.691606
v 1.145253 -0.258366 -0.474380
v 1.145253 0.258366 -0.474380
v 1.216753 -0.258366 -0.238677
v 1.216753 0.258366 -0.238677
v 1.240896 -0.258366 0.006447
v 1.240896 0.258366 0.006447
v 1.216753 -0.258366 0.251570
v 1.216753 0.258366 0.251570
v 1.145253 -0.258366 0.487274
v 1.145253 0.258366 0.487274
v -3.605673 -0.206630 -3.440934
v -4.073311 0.206630 -3.908571
v 3.970677 0.206630 -3.979796
v 3.503040 -0.206630 -3.512159
v 0.901500 -0.206630 -0.910619
v 0.901501 0.206630 -0.910620
v -4.073174 0.206630 3.921326
v -3.605537 -0.206630 3.453690
v -1.003998 -0.206630 0.852151
v -1.003999 0.206630 0.852152
v -3.930445 0.206630 4.064056
v -3.462807 -0.206630 3.596419
v -0.861268 -0.206630 0.994879
v -0.861269 0.206630 0.994880
v 0.972868 0.206630 0.852150
v 0.972867 -0.206630 0.852149
v -1.176386 -0.258366 -0.474377
v -1.176386 0.258366 -0.474377
v -1.247886 -0.258366 -0.238674
v -1.247886 0.258366 -0.238674
v -1.272029 -0.258366 0.006449
v -1.272029 0.258366 0.006449
v -1.247886 -0.258366 0.251573
v -1.247886 0.258366 0.251573
v -1.176386 -0.258366 0.487276
v -1.176386 0.258366 0.487276
v -1.060277 -0.258366 0.704502
v -1.060277 0.258366 0.704502
v -0.904020 -0.258366 0.894901
v -0.904020 0.258366 0.894901
v -0.713620 -0.258366 1.051158
v -0.713620 0.258366 1.051158
v -0.496395 -0.258366 1.167268
v -0.496395 0.258366 1.167268
v -0.260691 -0.258366 1.238768
v -0.260691 0.258366 1.238768
v -0.015568 -0.258366 1.262910
v -0.015568 0.258366 1.262910
v 0.229556 -0.258366 1.238768
v 0.229556 0.258366 1.238768
v 0.465259 -0.258366 1.167268
v 0.465259 0.258366 1.167268
v 0.872885 -0.258366 0.894901
v 0.872885 0.258366 0.894901
v -4.001811 0.206630 3.992692
v -3.534172 -0.206630 3.525054
v -0.932633 -0.206630 0.923515
v -0.932634 0.206630 0.923516
v -3.930582 0.206630 -4.051301
v -3.462943 -0.206630 -3.583662
v -0.861404 -0.206630 -0.982123
v -0.861405 0.206630 -0.982124
v -1.060412 -0.258366 -0.691745
v -1.060412 0.258366 -0.691745
v -0.904155 -0.258366 -0.882145
v -0.904155 0.258366 -0.882145
v -0.713756 -0.258366 -1.038402
v -0.713756 0.258366 -1.038402
v -4.001946 0.206630 -3.979936
v -3.534308 -0.206630 -3.512298
v -0.932769 -0.206630 -0.910759
v -0.932770 0.206630 -0.910760
v 3.899316 0.206630 4.064054
v 3.431677 -0.206630 3.596416
v 0.830137 -0.206630 0.994877
v 0.830138 0.206630 0.994878
v 1.029145 -0.258366 0.704499
v 1.029145 0.258366 0.704499
v 0.872888 -0.258366 0.894899
v 0.872888 0.258366 0.894899
v 0.682489 -0.258366 1.051156
v 0.682489 0.258366 1.051156
v 3.970680 0.206630 3.992690
v 3.503042 -0.206630 3.525052
v 0.901502 -0.206630 0.923513
v 0.901503 0.206630 0.923514
vn -0.7071 -0.0000 -0.7071
vn 0.7071 0.0000 0.7071
vn -0.0000 -1.0000 -0.0000
vn 0.7071 -0.0000 -0.7071
vn 0.0000 1.0000 0.0000
vn 0.4714 0.0000 0.8819
vn -0.4707 0.0000 -0.8823
vn -0.2903 0.0000 -0.9569
vn -0.0980 0.0000 -0.9952
vn 0.0980 0.0000 -0.9952
vn 0.2903 0.0000 -0.9569
vn 0.4714 0.0000 -0.8819
vn 0.6344 0.0000 -0.7730
vn 0.7730 0.0000 -0.6344
vn 0.8819 0.0000 -0.4714
vn 0.9569 0.0000 -0.2903
vn 0.9952 0.0000 -0.0980
vn 0.9952 0.0000 0.0980
vn 0.9569 0.0000 0.2903
vn 0.8819 0.0000 0.4714
vn 0.4839 0.6755 -0.5564
vn 0.5564 0.6755 -0.4839
vn 0.9344 -0.0000 -0.3562
vn 0.5564 -0.6755 -0.4839
vn 0.4839 -0.6755 -0.5564
vn 0.3562 -0.0000 -0.9344
vn -0.7071 -0.0000 0.7071
vn -0.8823 0.0000 -0.4707
vn -0.9569 0.0000 -0.2903
vn -0.9952 0.0000 -0.0980
vn -0.9952 0.0000 0.0980
vn -0.9569 0.0000 0.2903
vn -0.8819 0.0000 0.4714
vn -0.7730 0.0000 0.6344
vn -0.6344 0.0000 0.7730
vn -0.4714 0.0000 0.8819
vn -0.2903 0.0000 0.9569
vn -0.0980 0.0000 0.9952
vn 0.0980 0.0000 0.9952
vn 0.2903 0.0000 0.9569
vn -0.5564 0.6755 0.4839
vn -0.4839 0.6755 0.5564
vn -0.3562 -0.0000 0.9344
vn -0.4839 -0.6755 0.5564
vn -0.5564 -0.6755 0.4839
vn -0.9344 -0.0000 0.3562
vn -0.7730 0.0000 -0.6344
vn -0.6344 0.0000 -0.7730
vn -0.5564 0.6755 -0.4839
vn -0.4839 0.6755 -0.5564
vn -0.3562 -0.0000 -0.9344
vn -0.4839 -0.6755 -0.5564
vn -0.5564 -0.6755 -0.4839
vn -0.9344 -0.0000 -0.3562
vn 0.7730 0.0000 0.6344
vn 0.6344 0.0000 0.7730
vn 0.5564 0.6755 0.4839
vn 0.4839 0.6755 0.5564
vn 0.3562 -0.0000 0.9344
vn 0.4839 -0.6755 0.5564
vn 0.5564 -0.6755 0.4839
vn 0.9344 -0.0000 0.3562
usemtl Material
s off
f 1//1 2//1 3//1 4//1
f 5//2 8//2 7//2 6//2
f 42//3 6//3 7//3 43//3
f 43//4 44//4 8//4 7//4
f 41//5 1//5 4//5 44//5
f 80//6 79//6 109//6 110//6
f 14//7 13//7 95//7 96//7
f 13//8 14//8 16//8 15//8
f 15//9 16//9 18//9 17//9
f 17//10 18//10 20//10 19//10
f 19//11 20//11 22//11 21//11
f 21//12 22//12 24//12 23//12
f 23//13 24//13 26//13 25//13
f 25//14 26//14 28//14 27//14
f 27//15 28//15 30//15 29//15
f 29//16 30//16 32//16 31//16
f 31//17 32//17 34//17 33//17
f 33//18 34//18 36//18 35//18
f 35//19 36//19 38//19 37//19
f 105//20 37//20 38//20 106//20
f 5//5 41//5 44//5 8//5
f 3//4 4//4 44//4 43//4
f 2//3 42//3 43//3 3//3
f 26//21 44//21 4//21 24//21
f 44//22 26//22 28//22 8//22
f 27//23 7//23 8//23 28//23
f 25//24 43//24 7//24 27//24
f 23//25 3//25 43//25 25//25
f 23//26 24//26 4//26 3//26
f 45//1 48//1 47//1 46//1
f 49//2 50//2 51//2 52//2
f 84//3 85//3 51//3 50//3
f 85//27 51//27 52//27 86//27
f 83//5 86//5 48//5 45//5
f 91//28 55//28 56//28 92//28
f 55//29 57//29 58//29 56//29
f 57//30 59//30 60//30 58//30
f 59//31 61//31 62//31 60//31
f 61//32 63//32 64//32 62//32
f 63//33 65//33 66//33 64//33
f 65//34 67//34 68//34 66//34
f 67//35 69//35 70//35 68//35
f 69//36 71//36 72//36 70//36
f 71//37 73//37 74//37 72//37
f 73//38 75//38 76//38 74//38
f 75//39 77//39 78//39 76//39
f 77//40 79//40 80//40 78//40
f 49//5 52//5 86//5 83//5
f 47//27 85//27 86//27 48//27
f 46//3 47//3 85//3 84//3
f 68//41 66//41 48//41 86//41
f 86//42 52//42 70//42 68//42
f 69//43 70//43 52//43 51//43
f 67//44 69//44 51//44 85//44
f 65//45 67//45 85//45 47//45
f 65//46 47//46 48//46 66//46
f 40//27 39//27 10//27 9//27
f 87//4 90//4 89//4 88//4
f 98//3 88//3 89//3 99//3
f 99//1 100//1 90//1 89//1
f 97//5 40//5 9//5 100//5
f 91//47 92//47 94//47 93//47
f 93//48 94//48 96//48 95//48
f 87//5 97//5 100//5 90//5
f 10//1 9//1 100//1 99//1
f 39//3 98//3 99//3 10//3
f 94//49 100//49 9//49 92//49
f 100//50 94//50 96//50 90//50
f 95//51 89//51 90//51 96//51
f 93//52 99//52 89//52 95//52
f 91//53 10//53 99//53 93//53
f 91//54 92//54 9//54 10//54
f 12//4 11//4 54//4 53//4
f 101//27 104//27 103//27 102//27
f 112//3 102//3 103//3 113//3
f 113//2 114//2 104//2 103//2
f 111//5 12//5 53//5 114//5
f 105//55 106//55 108//55 107//55
f 107//56 108//56 110//56 109//56
f 101//5 111//5 114//5 104//5
f 54//2 53//2 114//2 113//2
f 11//3 112//3 113//3 54//3
f 108//57 114//57 53//57 106//57
f 114//58 108//58 110//58 104//58
f 109//59 103//59 104//59 110//59
f 107//60 113//60 103//60 109//60
f 105//61 54//61 113//61 107//61
f 105//62 106//62 53//62 54//62
f 56//5 58//5 60//5 62//5 64//5 66//5 68//5 70//5 72//5 74//5 76//5 78//5 80//5 110//5 108//5 106//5 38//5 36//5 34//5 32//5 30//5 28//5 26//5 24//5 22//5 20//5 18//5 16//5 14//5 96//5 94//5 92//5
f 13//3 15//3 17//3 19//3 21//3 23//3 25//3 27//3 29//3 31//3 33//3 35//3 37//3 105//3 107//3 109//3 79//3 77//3 75//3 73//3 71//3 69//3 67//3 65//3 63//3 61//3 59//3 57//3 55//3 91//3 93//3 95//3
l 82 81
